<svg width="24" height="24" viewBox="0 0 24 24" fill="none" xmlns="http://www.w3.org/2000/svg">
<rect width="24" height="24" rx="2" fill="black"/>
<path d="M17.5781 18.375H13.8828C13.0964 18.375 12.4141 18.2474 11.8359 17.9922C11.2578 17.737 10.8125 17.3594 10.5 16.8594C10.1823 16.3646 10.0234 15.7552 10.0234 15.0312C10.0234 14.4948 10.138 14.0078 10.3672 13.5703C10.5911 13.1328 10.901 12.7656 11.2969 12.4688C11.6927 12.1771 12.151 11.9766 12.6719 11.8672L13.0078 11.7422H16.9531L16.9688 12.5625H13.6641C13.0703 12.5625 12.5755 12.6771 12.1797 12.9062C11.7839 13.1354 11.487 13.4375 11.2891 13.8125C11.0859 14.1927 10.9844 14.599 10.9844 15.0312C10.9844 15.5469 11.0964 15.9922 11.3203 16.3672C11.5391 16.7474 11.8646 17.0391 12.2969 17.2422C12.7292 17.4453 13.2578 17.5469 13.8828 17.5469H16.6172V7H17.5781V18.375ZM10.5547 7L13.5 12.0859L12.4688 12.0938L9.53125 7.10156V7H10.5547Z" fill="white"/>
<path d="M11.8555 14.9531V14.8242C11.8555 14.5169 11.8997 14.2331 11.9883 13.9727C12.0768 13.7122 12.2031 13.487 12.3672 13.2969C12.5339 13.1068 12.7331 12.9596 12.9648 12.8555C13.1966 12.7487 13.4544 12.6953 13.7383 12.6953C14.0247 12.6953 14.2839 12.7487 14.5156 12.8555C14.7474 12.9596 14.9466 13.1068 15.1133 13.2969C15.2799 13.487 15.4076 13.7122 15.4961 13.9727C15.5846 14.2331 15.6289 14.5169 15.6289 14.8242V14.9531C15.6289 15.2604 15.5846 15.5443 15.4961 15.8047C15.4076 16.0625 15.2799 16.2865 15.1133 16.4766C14.9492 16.6667 14.7513 16.8151 14.5195 16.9219C14.2878 17.026 14.0299 17.0781 13.7461 17.0781C13.4596 17.0781 13.2005 17.026 12.9688 16.9219C12.737 16.8151 12.5378 16.6667 12.3711 16.4766C12.2044 16.2865 12.0768 16.0625 11.9883 15.8047C11.8997 15.5443 11.8555 15.2604 11.8555 14.9531ZM12.3203 14.8242V14.9531C12.3203 15.1849 12.3516 15.4049 12.4141 15.6133C12.4766 15.819 12.5677 16.0026 12.6875 16.1641C12.8073 16.3229 12.9557 16.4479 13.1328 16.5391C13.3099 16.6302 13.5143 16.6758 13.7461 16.6758C13.9753 16.6758 14.1771 16.6302 14.3516 16.5391C14.5286 16.4479 14.6771 16.3229 14.7969 16.1641C14.9167 16.0026 15.0065 15.819 15.0664 15.6133C15.1289 15.4049 15.1602 15.1849 15.1602 14.9531V14.8242C15.1602 14.5951 15.1289 14.3776 15.0664 14.1719C15.0065 13.9661 14.9154 13.7826 14.793 13.6211C14.6732 13.4596 14.5247 13.332 14.3477 13.2383C14.1706 13.1445 13.9674 13.0977 13.7383 13.0977C13.5091 13.0977 13.306 13.1445 13.1289 13.2383C12.9544 13.332 12.806 13.4596 12.6836 13.6211C12.5638 13.7826 12.4727 13.9661 12.4102 14.1719C12.3503 14.3776 12.3203 14.5951 12.3203 14.8242Z" fill="white"/>
<path d="M7.42188 5.625H11.1172C11.9036 5.625 12.5859 5.7526 13.1641 6.00781C13.7422 6.26302 14.1875 6.64062 14.5 7.14062C14.8177 7.63542 14.9766 8.24479 14.9766 8.96875C14.9766 9.50521 14.862 9.99219 14.6328 10.4297C14.4089 10.8672 14.099 11.2344 13.7031 11.5312C13.3073 11.8229 12.849 12.0234 12.3281 12.1328L11.9922 12.2578H8.04688L8.03125 11.4375H11.3359C11.9297 11.4375 12.4245 11.3229 12.8203 11.0938C13.2161 10.8646 13.513 10.5625 13.7109 10.1875C13.9141 9.80729 14.0156 9.40104 14.0156 8.96875C14.0156 8.45312 13.9036 8.00781 13.6797 7.63281C13.4609 7.2526 13.1354 6.96094 12.7031 6.75781C12.2708 6.55469 11.7422 6.45312 11.1172 6.45312H8.38281V17H7.42188V5.625ZM14.4453 17L11.5 11.9141L12.5312 11.9062L15.4688 16.8984V17H14.4453Z" fill="white"/>
<path d="M9.35547 8.95312V8.82422C9.35547 8.51693 9.39974 8.23307 9.48828 7.97266C9.57682 7.71224 9.70312 7.48698 9.86719 7.29688C10.0339 7.10677 10.2331 6.95964 10.4648 6.85547C10.6966 6.7487 10.9544 6.69531 11.2383 6.69531C11.5247 6.69531 11.7839 6.7487 12.0156 6.85547C12.2474 6.95964 12.4466 7.10677 12.6133 7.29688C12.7799 7.48698 12.9076 7.71224 12.9961 7.97266C13.0846 8.23307 13.1289 8.51693 13.1289 8.82422V8.95312C13.1289 9.26042 13.0846 9.54427 12.9961 9.80469C12.9076 10.0625 12.7799 10.2865 12.6133 10.4766C12.4492 10.6667 12.2513 10.8151 12.0195 10.9219C11.7878 11.026 11.5299 11.0781 11.2461 11.0781C10.9596 11.0781 10.7005 11.026 10.4688 10.9219C10.237 10.8151 10.0378 10.6667 9.87109 10.4766C9.70443 10.2865 9.57682 10.0625 9.48828 9.80469C9.39974 9.54427 9.35547 9.26042 9.35547 8.95312ZM9.82031 8.82422V8.95312C9.82031 9.1849 9.85156 9.40495 9.91406 9.61328C9.97656 9.81901 10.0677 10.0026 10.1875 10.1641C10.3073 10.3229 10.4557 10.4479 10.6328 10.5391C10.8099 10.6302 11.0143 10.6758 11.2461 10.6758C11.4753 10.6758 11.6771 10.6302 11.8516 10.5391C12.0286 10.4479 12.1771 10.3229 12.2969 10.1641C12.4167 10.0026 12.5065 9.81901 12.5664 9.61328C12.6289 9.40495 12.6602 9.1849 12.6602 8.95312V8.82422C12.6602 8.59505 12.6289 8.3776 12.5664 8.17188C12.5065 7.96615 12.4154 7.78255 12.293 7.62109C12.1732 7.45964 12.0247 7.33203 11.8477 7.23828C11.6706 7.14453 11.4674 7.09766 11.2383 7.09766C11.0091 7.09766 10.806 7.14453 10.6289 7.23828C10.4544 7.33203 10.306 7.45964 10.1836 7.62109C10.0638 7.78255 9.97266 7.96615 9.91016 8.17188C9.85026 8.3776 9.82031 8.59505 9.82031 8.82422Z" fill="white"/>
</svg>
