<svg width="24" height="24" viewBox="0 0 24 24" fill="none" xmlns="http://www.w3.org/2000/svg">
<rect width="24" height="24" rx="2" fill="white"/>
<path d="M16.5781 18.375H12.8828C12.0964 18.375 11.4141 18.2474 10.8359 17.9922C10.2578 17.737 9.8125 17.3594 9.5 16.8594C9.18229 16.3646 9.02344 15.7552 9.02344 15.0312C9.02344 14.4948 9.13802 14.0078 9.36719 13.5703C9.59115 13.1328 9.90104 12.7656 10.2969 12.4688C10.6927 12.1771 11.151 11.9766 11.6719 11.8672L12.0078 11.7422H15.9531L15.9688 12.5625H12.6641C12.0703 12.5625 11.5755 12.6771 11.1797 12.9062C10.7839 13.1354 10.487 13.4375 10.2891 13.8125C10.0859 14.1927 9.98438 14.599 9.98438 15.0312C9.98438 15.5469 10.0964 15.9922 10.3203 16.3672C10.5391 16.7474 10.8646 17.0391 11.2969 17.2422C11.7292 17.4453 12.2578 17.5469 12.8828 17.5469H15.6172V7H16.5781V18.375ZM9.55469 7L12.5 12.0859L11.4688 12.0938L8.53125 7.10156V7H9.55469Z" fill="black"/>
<path d="M10.8555 14.9531V14.8242C10.8555 14.5169 10.8997 14.2331 10.9883 13.9727C11.0768 13.7122 11.2031 13.487 11.3672 13.2969C11.5339 13.1068 11.7331 12.9596 11.9648 12.8555C12.1966 12.7487 12.4544 12.6953 12.7383 12.6953C13.0247 12.6953 13.2839 12.7487 13.5156 12.8555C13.7474 12.9596 13.9466 13.1068 14.1133 13.2969C14.2799 13.487 14.4076 13.7122 14.4961 13.9727C14.5846 14.2331 14.6289 14.5169 14.6289 14.8242V14.9531C14.6289 15.2604 14.5846 15.5443 14.4961 15.8047C14.4076 16.0625 14.2799 16.2865 14.1133 16.4766C13.9492 16.6667 13.7513 16.8151 13.5195 16.9219C13.2878 17.026 13.0299 17.0781 12.7461 17.0781C12.4596 17.0781 12.2005 17.026 11.9688 16.9219C11.737 16.8151 11.5378 16.6667 11.3711 16.4766C11.2044 16.2865 11.0768 16.0625 10.9883 15.8047C10.8997 15.5443 10.8555 15.2604 10.8555 14.9531ZM11.3203 14.8242V14.9531C11.3203 15.1849 11.3516 15.4049 11.4141 15.6133C11.4766 15.819 11.5677 16.0026 11.6875 16.1641C11.8073 16.3229 11.9557 16.4479 12.1328 16.5391C12.3099 16.6302 12.5143 16.6758 12.7461 16.6758C12.9753 16.6758 13.1771 16.6302 13.3516 16.5391C13.5286 16.4479 13.6771 16.3229 13.7969 16.1641C13.9167 16.0026 14.0065 15.819 14.0664 15.6133C14.1289 15.4049 14.1602 15.1849 14.1602 14.9531V14.8242C14.1602 14.5951 14.1289 14.3776 14.0664 14.1719C14.0065 13.9661 13.9154 13.7826 13.793 13.6211C13.6732 13.4596 13.5247 13.332 13.3477 13.2383C13.1706 13.1445 12.9674 13.0977 12.7383 13.0977C12.5091 13.0977 12.306 13.1445 12.1289 13.2383C11.9544 13.332 11.806 13.4596 11.6836 13.6211C11.5638 13.7826 11.4727 13.9661 11.4102 14.1719C11.3503 14.3776 11.3203 14.5951 11.3203 14.8242Z" fill="black"/>
<path d="M6.42188 5.625H10.1172C10.9036 5.625 11.5859 5.7526 12.1641 6.00781C12.7422 6.26302 13.1875 6.64062 13.5 7.14062C13.8177 7.63542 13.9766 8.24479 13.9766 8.96875C13.9766 9.50521 13.862 9.99219 13.6328 10.4297C13.4089 10.8672 13.099 11.2344 12.7031 11.5312C12.3073 11.8229 11.849 12.0234 11.3281 12.1328L10.9922 12.2578H7.04688L7.03125 11.4375H10.3359C10.9297 11.4375 11.4245 11.3229 11.8203 11.0938C12.2161 10.8646 12.513 10.5625 12.7109 10.1875C12.9141 9.80729 13.0156 9.40104 13.0156 8.96875C13.0156 8.45312 12.9036 8.00781 12.6797 7.63281C12.4609 7.2526 12.1354 6.96094 11.7031 6.75781C11.2708 6.55469 10.7422 6.45312 10.1172 6.45312H7.38281V17H6.42188V5.625ZM13.4453 17L10.5 11.9141L11.5312 11.9062L14.4688 16.8984V17H13.4453Z" fill="black"/>
<path d="M8.35547 8.95312V8.82422C8.35547 8.51693 8.39974 8.23307 8.48828 7.97266C8.57682 7.71224 8.70312 7.48698 8.86719 7.29688C9.03385 7.10677 9.23307 6.95964 9.46484 6.85547C9.69661 6.7487 9.95443 6.69531 10.2383 6.69531C10.5247 6.69531 10.7839 6.7487 11.0156 6.85547C11.2474 6.95964 11.4466 7.10677 11.6133 7.29688C11.7799 7.48698 11.9076 7.71224 11.9961 7.97266C12.0846 8.23307 12.1289 8.51693 12.1289 8.82422V8.95312C12.1289 9.26042 12.0846 9.54427 11.9961 9.80469C11.9076 10.0625 11.7799 10.2865 11.6133 10.4766C11.4492 10.6667 11.2513 10.8151 11.0195 10.9219C10.7878 11.026 10.5299 11.0781 10.2461 11.0781C9.95964 11.0781 9.70052 11.026 9.46875 10.9219C9.23698 10.8151 9.03776 10.6667 8.87109 10.4766C8.70443 10.2865 8.57682 10.0625 8.48828 9.80469C8.39974 9.54427 8.35547 9.26042 8.35547 8.95312ZM8.82031 8.82422V8.95312C8.82031 9.1849 8.85156 9.40495 8.91406 9.61328C8.97656 9.81901 9.06771 10.0026 9.1875 10.1641C9.30729 10.3229 9.45573 10.4479 9.63281 10.5391C9.8099 10.6302 10.0143 10.6758 10.2461 10.6758C10.4753 10.6758 10.6771 10.6302 10.8516 10.5391C11.0286 10.4479 11.1771 10.3229 11.2969 10.1641C11.4167 10.0026 11.5065 9.81901 11.5664 9.61328C11.6289 9.40495 11.6602 9.1849 11.6602 8.95312V8.82422C11.6602 8.59505 11.6289 8.3776 11.5664 8.17188C11.5065 7.96615 11.4154 7.78255 11.293 7.62109C11.1732 7.45964 11.0247 7.33203 10.8477 7.23828C10.6706 7.14453 10.4674 7.09766 10.2383 7.09766C10.0091 7.09766 9.80599 7.14453 9.62891 7.23828C9.45443 7.33203 9.30599 7.45964 9.18359 7.62109C9.0638 7.78255 8.97266 7.96615 8.91016 8.17188C8.85026 8.3776 8.82031 8.59505 8.82031 8.82422Z" fill="black"/>
</svg>
